<svg xmlns="http://www.w3.org/2000/svg" xmlns:xlink="http://www.w3.org/1999/xlink" width="101.142" height="71.373" viewBox="0 0 101.142 71.373"><defs><linearGradient id="a" y1="0.638" x2="9.933" y2="0.638" gradientUnits="objectBoundingBox"><stop offset="0" stop-color="#456ab3"/><stop offset="1" stop-color="#8e55a2"/></linearGradient><linearGradient id="b" x1="-0.297" y1="0.593" x2="3.064" y2="0.593" xlink:href="#a"/><linearGradient id="c" x1="-2.121" y1="0.638" x2="3.746" y2="0.638" xlink:href="#a"/><linearGradient id="d" x1="-2.977" y1="0.359" x2="2.839" y2="0.359" xlink:href="#a"/><linearGradient id="e" x1="-2.741" y1="0.638" x2="1.356" y2="0.638" xlink:href="#a"/><linearGradient id="f" x1="-8.845" y1="0.638" x2="1.001" y2="0.638" xlink:href="#a"/><linearGradient id="g" x1="-2.334" y1="0.5" x2="-1.334" y2="0.5" xlink:href="#a"/><linearGradient id="h" x1="-5.109" y1="0.5" x2="-4.109" y2="0.5" xlink:href="#a"/><linearGradient id="i" x1="0" y1="0.499" x2="1" y2="0.499" xlink:href="#a"/></defs><g transform="translate(-511.119 -555.656)"><path d="M630.92,736.048V720.47h2.96l-.036,15.448c0,2.581,1.412,4.094,4.128,4.094v2.856C633.638,742.858,630.92,740.28,630.92,736.048Z" transform="translate(-88.697 -122.023)" fill="url(#a)"/><path d="M654.77,750v-2.856h2.409v-6.639c0-4.232,1.96-7.085,6.158-7.636V730.12h2.916v2.752c4.2.55,6.158,3.4,6.158,7.636v6.641h3.2v2.856Zm8.568-14.415c-1.817.345-3.2,1.584-3.2,4.933v6.641h3.2Zm6.122,4.933c0-3.336-1.376-4.575-3.2-4.933v11.561h3.2Z" transform="translate(-106.355 -129.168)" fill="url(#b)"/><path d="M728.45,723.675V720.44h2.957v3.235Zm11.626,19.161a6.594,6.594,0,0,1-5.3-2.2,6.108,6.108,0,0,1-5.128,2.2h-.343V739.98h.343a3.169,3.169,0,0,0,3.51-3.375v-9.866h2.96v9.978c0,2.1,1.514,3.269,3.954,3.269h.312v2.856Zm-6.948-19.161V720.44h2.957v3.235Z" transform="translate(-160.905 -122.001)" fill="url(#c)"/><path d="M769,766.992v-3.2h2.96v3.2Zm11.525-6.195a6.594,6.594,0,0,1-5.3-2.2,6.108,6.108,0,0,1-5.128,2.2h-.519v-2.856h.519a3.169,3.169,0,0,0,3.51-3.375V744.7h2.957v9.978c0,2.1,1.514,3.269,3.957,3.269h.519V760.8Zm-6.852,6.195v-3.2H776.6v3.2Z" transform="translate(-190.927 -139.963)" fill="url(#d)"/><path d="M823.852,742.836a12.134,12.134,0,0,1-3.894-.652,12.5,12.5,0,0,1-3.923.652H811.4V739.98h5.159c-2.064-1.859-3.749-4.474-3.375-7.467a6.847,6.847,0,0,1,13.527,0c.413,2.993-1.3,5.608-3.375,7.467h5.159v2.856Zm-3.894-13.589a3.736,3.736,0,0,0-3.785,3.235c-.413,2.856,1.376,5.161,3.785,6.537,2.373-1.376,4.154-3.682,3.749-6.537a3.747,3.747,0,0,0-3.741-3.235Zm-3.715-5.608v-3.2h2.89v3.2Zm4.608,0v-3.2h2.934v3.2Z" transform="translate(-222.319 -122.001)" fill="url(#e)"/><path d="M873.28,742.828v-2.856c2.752,0,4.154-1.514,4.154-4.094V720.43h2.96v15.578C880.4,740.25,877.621,742.828,873.28,742.828Z" transform="translate(-268.133 -121.994)" fill="url(#f)"/><path d="M529.366,598.366c.859-1.039,4.12-5.143,4.975-6.187.519-.636,1.038-1.28,1.558-1.911.177-.21.182-.356-.044-.535a5.105,5.105,0,0,1-.439-.475,19.785,19.785,0,0,1,2.7-29.878,19.372,19.372,0,0,1,6.309-3.022,19.992,19.992,0,0,1,16.357,2.666,19.155,19.155,0,0,1,5.348,5.322,19.791,19.791,0,0,1-3.352,26.069,20.024,20.024,0,0,1-5.247,3.331,19.655,19.655,0,0,1-10.17,1.454,19.278,19.278,0,0,1-8.69-3.243c-.644-.436-.641-.452-1.15.164-1.2,1.446-4.8,5.953-5.99,7.4-.2.26-.395.5-.608.779l.478.387c.779.623,1.558,1.225,2.313,1.877a2.207,2.207,0,0,1,.3,3.139c-.26.358-.571.7-.87,1.039q-1.685,1.89-3.36,3.783c-.7.792-1.384,1.592-2.077,2.381-1.2,1.358-2.469,2.666-3.617,4.071a6.376,6.376,0,0,1-7.137,2,11.449,11.449,0,0,1-4.746-3.635,5.589,5.589,0,0,1,.231-6.909c.984-1.14,1.994-2.259,3-3.375q3.669-4.123,7.342-8.243a2.552,2.552,0,0,1,3.373-.314L529,598.771C529.135,598.613,529.262,598.5,529.366,598.366ZM567.14,575a17.935,17.935,0,1,0,0,.01Zm-51.773,40.123c.457.345.911.7,1.358,1.054a3.817,3.817,0,0,0,5.154-.436c1.176-1.3,2.337-2.609,3.515-3.894.231-.26.169-.4-.078-.595-2.1-1.646-4.188-3.305-6.288-4.951-.846-.665-.852-.652-1.573.171-1,1.14-2.023,2.269-3.022,3.414a2.733,2.733,0,0,0-.854,2.305C513.487,613.482,514.339,614.351,515.367,615.123Zm4.658-11.551a.413.413,0,0,0,.057.4c2.02,1.625,4.053,3.235,6.081,4.85.291.231.563.488.872.7a.434.434,0,0,0,.41-.031c.426-.431.818-.893,1.225-1.342.179-.195.2-.343-.039-.532q-3.513-2.765-7.01-5.551a1.445,1.445,0,0,0-.19-.1C520.954,602.5,520.477,603.021,520.025,603.572Zm5.174-1.786c1.654,1.3,3.31,2.615,4.949,3.946.319.26.519.26.753-.067a12.567,12.567,0,0,1,.917-1.039c.216-.223.2-.361-.049-.553-2.28-1.791-4.551-3.6-6.839-5.382-.119-.1-.426-.153-.5-.083-.462.47-.885.981-1.358,1.519C523.81,600.7,524.511,601.238,525.2,601.785Z" transform="translate(0)" fill="url(#g)"/><path d="M615.947,573.548a15.192,15.192,0,1,1-14.68,15.287A15.264,15.264,0,0,1,615.947,573.548Zm.675,27.962a12.79,12.79,0,1,0-12.989-12.595A12.787,12.787,0,0,0,616.622,601.51Z" transform="translate(-66.742 -13.241)" fill="url(#h)"/><path d="M670.11,601.358a11.137,11.137,0,0,0-2.2-5.621,10.784,10.784,0,0,0-4.136-3.206,11.943,11.943,0,0,0-3.785-.862c-.26-.026-.392.075-.387.376,0,.633-.034,1.267-.031,1.9,0,.852.044,1.7.049,2.555q.015,2.669,0,5.335c0,.278.143.361.376.35.434-.021.865-.08,1.3-.075,1.314.013,2.627.057,3.944.07.478,0,.958-.07,1.438-.068.665,0,1.332.065,2,.073a7.906,7.906,0,0,0,1.106-.091C670.256,602.028,670.033,601.641,670.11,601.358Z" transform="translate(-109.908 -26.66)" fill="url(#i)"/></g></svg>