<svg xmlns="http://www.w3.org/2000/svg" xmlns:xlink="http://www.w3.org/1999/xlink" width="358" height="760" viewBox="0 0 358 760"><defs><clipPath id="a"><rect width="358" height="760" transform="translate(1562)" fill="#fff" stroke="#707070" stroke-width="1"/></clipPath><linearGradient id="b" x1="0.5" x2="0.5" y2="1" gradientUnits="objectBoundingBox"><stop offset="0" stop-color="#9964ab"/><stop offset="1" stop-color="#6076b8"/></linearGradient></defs><g transform="translate(-1562)" clip-path="url(#a)"><g transform="translate(1586 -549)" fill="url(#b)"><path d="M 650.0000610351563 1288.5 C 649.1004028320313 1288.5 648.07958984375 1287.799194335938 646.9658813476563 1286.417114257813 C 645.8339233398438 1285.012451171875 644.6033935546875 1282.886962890625 643.3082275390625 1280.099609375 C 640.8944091796875 1274.904052734375 638.2267456054688 1267.410278320313 635.1532592773438 1257.190673828125 C 629.4284057617188 1238.155517578125 623.0872192382813 1212.133178710938 616.9548950195313 1186.967651367188 C 610.7802734375 1161.628051757813 604.395263671875 1135.425659179688 598.44140625 1115.415649414063 C 591.6134033203125 1092.4677734375 586.3255615234375 1080.864990234375 581.8002319335938 1078.90087890625 C 578.0365600585938 1077.267211914063 573.4595947265625 1076.47314453125 567.8077392578125 1076.47314453125 C 558.7694091796875 1076.47314453125 547.2805786132813 1078.503784179688 531.6517333984375 1082.863647460938 C 517.7070922851563 1086.753662109375 502.0855712890625 1092.045288085938 485.5469055175781 1097.647827148438 C 464.0595703125 1104.926513671875 441.8407592773438 1112.453002929688 419.2672424316406 1118.371215820313 C 393.5292358398438 1125.118774414063 371.9355773925781 1128.480712890625 353.2519226074219 1128.649047851563 C 353.0877380371094 1128.650512695313 352.9164123535156 1128.6513671875 352.750244140625 1128.6513671875 C 342.9279174804688 1128.6513671875 330.2568969726563 1126.142822265625 317.0710754394531 1121.58837890625 C 302.0272521972656 1116.391845703125 287.0570678710938 1108.79248046875 273.7792358398438 1099.612060546875 C 266.3074035644531 1094.44580078125 259.3197326660156 1088.749145507813 253.0102386474609 1082.679809570313 C 246.1894073486328 1076.11865234375 240.0640716552734 1069.026489257813 234.8045806884766 1061.600341796875 C 223.0305786132813 1044.975830078125 215.3549041748047 1026.412719726563 211.9907379150391 1006.426147460938 C 210.8587493896484 999.6998291015625 210.5984191894531 992.7979736328125 211.1954193115234 985.3259887695313 C 211.7305755615234 978.625 212.9509124755859 971.5883178710938 214.9257507324219 963.8134765625 C 218.6134185791016 949.2958374023438 224.3110809326172 934.6279907226563 230.3434143066406 919.0988159179688 C 238.7090759277344 897.5625 247.3595733642578 875.2930297851563 251.2677459716797 851.544677734375 C 252.2792510986328 845.3983154296875 252.9369049072266 839.31201171875 253.2220764160156 833.4550170898438 C 253.5284118652344 827.1649780273438 253.4182434082031 820.8914794921875 252.8944091796875 814.808837890625 C 252.3384094238281 808.3526611328125 251.2970733642578 801.8804931640625 249.7994079589844 795.572021484375 C 248.2230834960938 788.9321899414063 246.0884094238281 782.2503051757813 243.4545745849609 775.7118530273438 C 241.0134124755859 769.65185546875 238.2179107666016 763.899658203125 235.1459045410156 758.6151733398438 C 232.2164154052734 753.5758056640625 228.9379119873047 748.795166015625 225.4017486572266 744.4056396484375 C 218.8744049072266 736.3033447265625 211.3627471923828 729.3086547851563 202.4374084472656 723.02197265625 C 195.0060729980469 717.7874755859375 186.4352416992188 712.9655151367188 176.2350769042969 708.280029296875 C 167.1505737304688 704.107177734375 157.642578125 700.4258422851563 148.4479064941406 696.8658447265625 C 140.590576171875 693.8236694335938 132.4657440185547 690.6778564453125 124.6470794677734 687.2411499023438 C 115.8874130249023 683.3909912109375 108.4449081420898 679.5733032226563 101.8940811157227 675.5700073242188 C 94.04058074951172 670.7706909179688 87.26908111572266 665.6116943359375 81.19258117675781 659.79833984375 C 77.9012451171875 656.6493530273438 74.78141021728516 653.2618408203125 71.92008209228516 649.72998046875 C 68.91757965087891 646.0243530273438 66.09474182128906 642.030517578125 63.52991104125977 637.85986328125 C 57.99357986450195 628.856689453125 53.39024353027344 619.1400146484375 49.84757995605469 608.9794921875 C 46.51257705688477 599.4141845703125 44.03574371337891 589.22119140625 42.48574447631836 578.6836547851563 C 39.6767463684082 559.5859985351563 39.81174468994141 538.8364868164063 42.88724517822266 517.0113525390625 C 45.51857757568359 498.3378295898438 50.28557968139648 478.8948364257813 57.05558013916016 459.22265625 C 59.98474502563477 450.7114868164063 63.29507827758789 442.1533203125 66.89474487304688 433.7860107421875 C 70.14674377441406 426.2271728515625 73.64191436767578 418.8038330078125 77.28357696533203 411.7223205566406 C 90.79341125488281 385.4505004882813 103.0409088134766 361.7526550292969 116.1217422485352 337.7743225097656 C 131.1942443847656 310.1453247070313 145.173583984375 286.2663269042969 158.8587493896484 264.7730102539063 C 166.7054138183594 252.4493408203125 174.6734161376953 240.5773315429688 182.5415802001953 229.4869995117188 C 190.9640808105469 217.6153259277344 199.6040802001953 206.170166015625 208.2215728759766 195.4691619873047 C 217.3452453613281 184.1398315429688 226.7719116210938 173.2368316650391 236.2395782470703 163.0628356933594 C 246.1849060058594 152.3755035400391 256.5129089355469 142.1300048828125 266.9362487792969 132.61083984375 C 277.8215637207031 122.6699981689453 289.1655883789063 113.1973342895508 300.653076171875 104.4560012817383 C 312.5952453613281 95.36900329589844 325.0702514648438 86.78433227539063 337.7319030761719 78.94083404541016 C 350.8467407226563 70.81666564941406 364.5680847167969 63.23550033569336 378.5150756835938 56.40800094604492 C 392.9182434082031 49.35699844360352 408.0012512207031 42.8946647644043 423.3453979492188 37.20016479492188 C 439.1522521972656 31.33399963378906 455.71240234375 26.10600090026855 472.5662536621094 21.66116714477539 C 489.8915710449219 17.09199905395508 508.0444030761719 13.21399974822998 526.5205688476563 10.13500022888184 C 545.479248046875 6.975500106811523 565.3399047851563 4.563666820526123 585.5510864257813 2.966166734695435 C 606.2572631835938 1.329833388328552 627.9411010742188 0.5 650.0000610351563 0.5 C 672.1552734375 0.5 694.4984130859375 1.618666648864746 716.4087524414063 3.825000047683716 C 738.0017700195313 5.999333381652832 759.69921875 9.282666206359863 780.8982543945313 13.58399963378906 C 801.8230590820313 17.82950019836426 822.7650756835938 23.16883277893066 843.1427612304688 29.45316696166992 C 863.2924194335938 35.66733169555664 883.369384765625 42.95349884033203 902.8161010742188 51.10916519165039 C 922.0828857421875 59.18933486938477 941.1849365234375 68.31349945068359 959.591552734375 78.22783660888672 C 977.8672485351563 88.07183074951172 995.8845825195313 98.92500305175781 1013.142883300781 110.4858322143555 C 1030.318115234375 121.9909973144531 1047.140747070313 134.4643402099609 1063.143798828125 147.5594940185547 C 1079.107788085938 160.6224975585938 1094.625854492188 174.6071624755859 1109.267456054688 189.1246643066406 C 1123.908935546875 203.642333984375 1138.0126953125 219.0291595458984 1151.187377929688 234.8580017089844 C 1164.394287109375 250.7256622314453 1176.973876953125 267.4058227539063 1188.577026367188 284.4354858398438 C 1200.236572265625 301.5476684570313 1211.182250976563 319.4123229980469 1221.110107421875 337.5333251953125 C 1231.109130859375 355.7838439941406 1240.310791015625 374.7239990234375 1248.4599609375 393.8276672363281 C 1256.68505859375 413.1094970703125 1264.033203125 433.0161743164063 1270.30029296875 452.9949951171875 C 1276.638305664063 473.2000122070313 1282.02294921875 493.9645080566406 1286.3046875 514.7118530273438 C 1290.642578125 535.7311401367188 1293.953857421875 557.2446899414063 1296.146728515625 578.6544799804688 C 1298.371948242188 600.3790283203125 1299.500122070313 622.5326538085938 1299.500122070313 644.5 C 1299.500122070313 666.4673461914063 1298.371948242188 688.6209716796875 1296.146728515625 710.3455200195313 C 1293.953857421875 731.7553100585938 1290.642578125 753.2688598632813 1286.3046875 774.2881469726563 C 1282.02294921875 795.0355224609375 1276.638305664063 815.7999877929688 1270.30029296875 836.0050048828125 C 1264.033203125 855.9838256835938 1256.68505859375 875.8905029296875 1248.4599609375 895.17236328125 C 1240.310791015625 914.2760009765625 1231.109130859375 933.2161865234375 1221.110107421875 951.4666748046875 C 1211.182250976563 969.587646484375 1200.236572265625 987.4523315429688 1188.577026367188 1004.564514160156 C 1176.973876953125 1021.594177246094 1164.394287109375 1038.274291992188 1151.187377929688 1054.141967773438 C 1138.0126953125 1069.970825195313 1123.908935546875 1085.357666015625 1109.267456054688 1099.875366210938 C 1094.625854492188 1114.392822265625 1079.107788085938 1128.37744140625 1063.143798828125 1141.440551757813 C 1047.140747070313 1154.53564453125 1030.318115234375 1167.009033203125 1013.142883300781 1178.51416015625 C 995.8845825195313 1190.074951171875 977.8672485351563 1200.92822265625 959.591552734375 1210.772216796875 C 941.1849365234375 1220.6865234375 922.0828857421875 1229.810668945313 902.8161010742188 1237.890869140625 C 883.369384765625 1246.046508789063 863.2924194335938 1253.332641601563 843.1427612304688 1259.546875 C 822.7650756835938 1265.831176757813 801.8230590820313 1271.170532226563 780.8982543945313 1275.416015625 C 759.69921875 1279.71728515625 738.0017700195313 1283.000610351563 716.4087524414063 1285.175048828125 C 694.4984130859375 1287.38134765625 672.1552734375 1288.5 650.0000610351563 1288.5 Z" stroke="none"/><path d="M 650.0000610351563 1 C 627.9542236328125 1 606.2837524414063 1.8292236328125 585.5903930664063 3.4647216796875 C 565.3935546875 5.060791015625 545.5472412109375 7.470947265625 526.6027221679688 10.628173828125 C 508.1417236328125 13.7047119140625 490.0042724609375 17.579345703125 472.6937255859375 22.1446533203125 C 455.8555908203125 26.5853271484375 439.3109130859375 31.8084716796875 423.5194091796875 37.6689453125 C 408.1907348632813 43.357666015625 393.1231079101563 49.8133544921875 378.7349243164063 56.8570556640625 C 364.802734375 63.6773681640625 351.0958862304688 71.2503662109375 337.9952392578125 79.3658447265625 C 325.3471069335938 87.2010498046875 312.88525390625 95.7764892578125 300.9559326171875 104.8538818359375 C 289.480224609375 113.586181640625 278.147705078125 123.0491943359375 267.2734375 132.97998046875 C 256.85986328125 142.489990234375 246.541748046875 152.725830078125 236.6055908203125 163.4033203125 C 227.1458740234375 173.5687255859375 217.727294921875 184.462646484375 208.611083984375 195.78271484375 C 199.999755859375 206.475830078125 191.365966796875 217.912841796875 182.949462890625 229.7763671875 C 175.0860595703125 240.85986328125 167.122802734375 252.724853515625 159.280517578125 265.04150390625 C 145.6015625 286.5253295898438 131.627685546875 310.3946533203125 116.560791015625 338.013671875 C 103.482421875 361.9871826171875 91.236572265625 385.6821899414063 77.728271484375 411.9509887695313 C 74.0919189453125 419.0223388671875 70.6014404296875 426.4351806640625 67.3541259765625 433.983642578125 C 63.75927734375 442.3394775390625 60.453369140625 450.8858032226563 57.5284423828125 459.3853149414063 C 50.7685546875 479.0275268554688 46.009033203125 498.4391479492188 43.3822021484375 517.0811767578125 C 40.3133544921875 538.8590087890625 40.1781005859375 559.5604858398438 42.980224609375 578.61083984375 C 44.525634765625 589.1171875 46.994873046875 599.2793579101563 50.319580078125 608.8148193359375 C 53.8504638671875 618.9415283203125 58.438232421875 628.62548828125 63.9556884765625 637.5978393554688 C 66.50927734375 641.7503051757813 69.3194580078125 645.7261962890625 72.3084716796875 649.4153442382813 C 75.1566162109375 652.9306640625 78.261962890625 656.302490234375 81.5380859375 659.43701171875 C 87.58837890625 665.225341796875 94.33203125 670.3629760742188 102.15478515625 675.1434936523438 C 108.68603515625 679.1348266601563 116.1092529296875 682.9423217773438 124.8482666015625 686.7835083007813 C 132.6566162109375 690.2156372070313 140.776123046875 693.3593139648438 148.6282958984375 696.3994750976563 C 157.8302001953125 699.9623413085938 167.34521484375 703.646484375 176.4437255859375 707.82568359375 C 186.671875 712.5239868164063 195.268798828125 717.3610229492188 202.7252197265625 722.6131591796875 C 211.689208984375 728.927001953125 219.2342529296875 735.9528198242188 225.7911376953125 744.0919799804688 C 229.343017578125 748.5009765625 232.6358642578125 753.3028564453125 235.5782470703125 758.3638305664063 C 238.6622314453125 763.6690063476563 241.46826171875 769.4428100585938 243.918212890625 775.5250244140625 C 246.5614013671875 782.0864868164063 248.7037353515625 788.79248046875 250.285888671875 795.45654296875 C 251.7891845703125 801.788818359375 252.83447265625 808.2853393554688 253.3924560546875 814.765869140625 C 253.918212890625 820.870849609375 254.0289306640625 827.1669921875 253.721435546875 833.4791259765625 C 253.435302734375 839.3553466796875 252.7757568359375 845.460693359375 251.7611083984375 851.6256713867188 C 247.8443603515625 875.425537109375 239.1842041015625 897.719482421875 230.8094482421875 919.2796630859375 C 224.78271484375 934.794189453125 219.0904541015625 949.4483642578125 215.4102783203125 963.9365234375 C 213.4423828125 971.6836547851563 212.2266845703125 978.6931762695313 211.6937255859375 985.3656616210938 C 211.1002197265625 992.7960205078125 211.3585205078125 999.6578369140625 212.48388671875 1006.343017578125 C 215.83544921875 1026.254638671875 223.482421875 1044.748657226563 235.2125244140625 1061.311157226563 C 240.453857421875 1068.711791992188 246.55859375 1075.780029296875 253.356689453125 1082.319458007813 C 259.64697265625 1088.3701171875 266.61376953125 1094.0498046875 274.0635986328125 1099.20068359375 C 287.3045654296875 1108.355834960938 302.2327270507813 1115.933837890625 317.2342529296875 1121.115478515625 C 330.368896484375 1125.652465820313 342.9820556640625 1128.151123046875 352.750244140625 1128.151123046875 C 352.9149169921875 1128.151123046875 353.084716796875 1128.150390625 353.2474365234375 1128.148803710938 C 371.8890991210938 1127.98095703125 393.4429321289063 1124.624267578125 419.1404418945313 1117.887329101563 C 441.6968994140625 1111.973876953125 463.9074096679688 1104.4501953125 485.3864135742188 1097.174194335938 C 501.931884765625 1091.569458007813 517.5595703125 1086.275634765625 531.5173950195313 1082.381958007813 C 547.1912231445313 1078.009643554688 558.7227172851563 1075.97314453125 567.8077392578125 1075.97314453125 C 573.5292358398438 1075.97314453125 578.17138671875 1076.780883789063 581.9993896484375 1078.442138671875 C 583.3687744140625 1079.036499023438 584.7374267578125 1080.373046875 586.1838989257813 1082.5283203125 C 587.4725952148438 1084.448364257813 588.8485717773438 1087.078002929688 590.2737426757813 1090.343994140625 C 592.8740844726563 1096.302734375 595.702392578125 1104.457153320313 598.9207153320313 1115.273193359375 C 604.8780517578125 1135.295043945313 611.2645874023438 1161.503662109375 617.4407348632813 1186.84912109375 C 623.5715942382813 1212.00830078125 629.9110717773438 1238.024169921875 635.632080078125 1257.046630859375 C 638.6986083984375 1267.243286132813 641.35791015625 1274.715209960938 643.76171875 1279.889038085938 C 645.0397338867188 1282.639526367188 646.2487182617188 1284.730346679688 647.355224609375 1286.103515625 C 648.3551025390625 1287.344116210938 649.2695922851563 1288 650.0000610351563 1288 C 672.1385498046875 1288 694.4649047851563 1286.882202148438 716.3585815429688 1284.677490234375 C 737.9352416992188 1282.5048828125 759.6160888671875 1279.223999023438 780.7988891601563 1274.926025390625 C 801.7075805664063 1270.683715820313 822.6334228515625 1265.3486328125 842.9954223632813 1259.068969726563 C 863.1295776367188 1252.859619140625 883.1910400390625 1245.579223632813 902.62255859375 1237.429809570313 C 921.874755859375 1229.355834960938 940.9620361328125 1220.238647460938 959.3543701171875 1210.33203125 C 977.6160888671875 1200.495483398438 995.619384765625 1189.650634765625 1012.864624023438 1178.0986328125 C 1030.0263671875 1166.6025390625 1046.836181640625 1154.138671875 1062.827026367188 1141.0537109375 C 1078.77880859375 1128.00048828125 1094.285034179688 1114.026611328125 1108.915283203125 1099.520141601563 C 1123.54541015625 1085.013793945313 1137.638549804688 1069.638671875 1150.802978515625 1053.822143554688 C 1163.99951171875 1037.966796875 1176.569580078125 1021.299499511719 1188.163696289063 1004.282958984375 C 1199.814086914063 987.1839599609375 1210.751220703125 969.3333740234375 1220.67138671875 951.2265014648438 C 1230.66259765625 932.9901733398438 1239.857299804688 914.0648193359375 1247.999877929688 894.9761962890625 C 1256.218627929688 875.70947265625 1263.560913085938 855.818359375 1269.823120117188 835.8553466796875 C 1276.156127929688 815.6663208007813 1281.536376953125 794.9181518554688 1285.81494140625 774.1871948242188 C 1290.1494140625 753.184326171875 1293.458129882813 731.6876831054688 1295.649291992188 710.2944946289063 C 1297.87255859375 688.5868530273438 1298.999877929688 666.4503173828125 1298.999877929688 644.5 C 1298.999877929688 622.5496826171875 1297.87255859375 600.4131469726563 1295.649291992188 578.7055053710938 C 1293.458129882813 557.3123168945313 1290.1494140625 535.815673828125 1285.81494140625 514.8128051757813 C 1281.536376953125 494.0818481445313 1276.156127929688 473.3336791992188 1269.823120117188 453.1446533203125 C 1263.560913085938 433.181640625 1256.218627929688 413.29052734375 1247.999877929688 394.0238037109375 C 1239.857299804688 374.9351806640625 1230.66259765625 356.0098266601563 1220.67138671875 337.7734985351563 C 1210.751220703125 319.6666870117188 1199.814086914063 301.8159790039063 1188.163696289063 284.7169799804688 C 1176.569580078125 267.7005004882813 1163.99951171875 251.033203125 1150.802978515625 235.1778564453125 C 1137.638549804688 219.361328125 1123.54541015625 203.9862060546875 1108.915283203125 189.4798583984375 C 1094.285034179688 174.973388671875 1078.77880859375 160.99951171875 1062.827026367188 147.9462890625 C 1046.836181640625 134.861328125 1030.0263671875 122.3974609375 1012.864624023438 110.9013671875 C 995.619384765625 99.349365234375 977.6160888671875 88.5045166015625 959.3543701171875 78.66796875 C 940.9620361328125 68.7613525390625 921.874755859375 59.6441650390625 902.62255859375 51.5701904296875 C 883.1910400390625 43.4207763671875 863.1295776367188 36.140380859375 842.9954223632813 29.9310302734375 C 822.6334228515625 23.6513671875 801.7075805664063 18.3162841796875 780.7988891601563 14.073974609375 C 759.6160888671875 9.7760009765625 737.9352416992188 6.4951171875 716.3585815429688 4.322509765625 C 694.4649047851563 2.1177978515625 672.1385498046875 1 650.0000610351563 1 M 650.0000610351563 0 C 1008.985107421875 0 1299.999877929688 288.552490234375 1299.999877929688 644.5 C 1299.999877929688 1000.447509765625 1008.985107421875 1289 650.0000610351563 1289 C 632.6334228515625 1289 600.903564453125 1087.737182617188 581.6012573242188 1079.359497070313 C 577.8026123046875 1077.710693359375 573.1610717773438 1076.97314453125 567.8078002929688 1076.97314453125 C 523.0418701171875 1076.97314453125 428.123291015625 1128.474487304688 353.2564086914063 1129.148803710938 C 353.0908203125 1129.150390625 352.9178466796875 1129.151123046875 352.7501831054688 1129.151123046875 C 315.289306640625 1129.151123046875 225.9476318359375 1092.357421875 211.497802734375 1006.509033203125 C 200.171630859375 939.218505859375 280.089111328125 867.9954833984375 242.99072265625 775.898681640625 C 205.8922119140625 683.8018188476563 109.030517578125 712.8058471679688 63.1038818359375 638.1216430664063 C 17.1773681640625 563.4375 49.22021484375 465.20166015625 76.8388671875 411.49365234375 C 177.6363525390625 215.4796142578125 291.014892578125 0 650.0000610351563 0 Z" stroke="none" fill="#707070"/></g><circle cx="50" cy="50" r="50" transform="translate(1848 589)" fill="url(#b)"/><circle cx="50" cy="50" r="50" transform="translate(1707 218)" fill="url(#b)"/><circle cx="20" cy="20" r="20" transform="translate(1667 178)" fill="url(#b)"/><circle cx="15" cy="15" r="15" transform="translate(1767 349)" fill="url(#b)"/></g></svg>